<?xml version="1.0" encoding="UTF-8" standalone="no" ?>
<!DOCTYPE svg PUBLIC "-//W3C//DTD SVG 1.1//EN" "http://www.w3.org/Graphics/SVG/1.1/DTD/svg11.dtd">
<svg xmlns="http://www.w3.org/2000/svg" xmlns:xlink="http://www.w3.org/1999/xlink" version="1.1" width="1080" height="1080" viewBox="0 0 1080 1080" xml:space="preserve">
<desc>Created with Fabric.js 3.6.6</desc>
<defs>
<linearGradient id="SVGID_129" gradientUnits="userSpaceOnUse" gradientTransform="matrix(1 0 0 1 0 0) matrix(1 0 0 1 -540 -540)"  x1="0" y1="378" x2="756" y2="378">
<stop offset="0%" style="stop-color:rgba(255, 255, 255, 1);"/>
<stop offset="100%" style="stop-color:rgba(255, 255, 255, 1);"/>
</linearGradient>
</defs>
<rect transform="matrix(1 0 0 1 0 0) translate(540,540)" x="-540" y="-540" width="1080" height="1080" fill="url(#SVGID_129)"></rect>
<g transform="matrix(1 0 0 1 528.1 538.26)"  >
<g style=""   >
		<g transform="matrix(1.33 0 0 1.33 0 0)" clip-path="url(#CLIPPATH_130)"  >
<clipPath id="CLIPPATH_130" >
	<rect transform="matrix(1 0 0 1 0 0)" id="_clipPath_9dExjbd0z5XyMNaDz4Z0lRmdIkBv8ipi" x="-373.951" y="-353.069" rx="0" ry="0" width="747.902" height="706.138" />
</clipPath>
<path style="stroke: rgb(255,255,255); stroke-width: 50; stroke-dasharray: none; stroke-linecap: square; stroke-dashoffset: 0; stroke-linejoin: miter; stroke-miterlimit: 3; fill: rgb(255,255,255); fill-rule: nonzero; opacity: 1;" vector-effect="non-scaling-stroke"  transform=" translate(-284.06, -264.22)" d="M 465.833 394.46 L 546.881 475.508 L 583.012 511.639 L 468.629 542.288 L 393.297 466.956 C 351.602 494.852 301.485 511.126 247.598 511.126 C 102.727 511.126 -14.89 393.509 -14.89 248.638 C -14.89 103.767 102.727 -13.85 247.598 -13.85 C 392.469 -13.85 510.086 103.767 510.086 248.638 C 510.086 302.578 493.78 352.74 465.833 394.46 L 465.833 394.46 L 465.833 394.46 L 465.833 394.46 L 465.833 394.46 Z" stroke-linecap="round" />
</g>
		<g transform="matrix(1.33 0 0 1.33 0 0)" clip-path="url(#CLIPPATH_131)"  >
<clipPath id="CLIPPATH_131" >
	<rect transform="matrix(1 0 0 1 0 0)" id="_clipPath_9dExjbd0z5XyMNaDz4Z0lRmdIkBv8ipi" x="-373.951" y="-353.069" rx="0" ry="0" width="747.902" height="706.138" />
</clipPath>
<path style="stroke: none; stroke-width: 1; stroke-dasharray: none; stroke-linecap: butt; stroke-dashoffset: 0; stroke-linejoin: miter; stroke-miterlimit: 4; fill: rgb(255,255,255); fill-rule: nonzero; opacity: 1;"  transform=" translate(-284.06, -264.22)" d="M 465.833 394.46 L 546.881 475.508 L 583.012 511.639 L 468.629 542.288 L 393.297 466.956 C 351.602 494.852 301.485 511.126 247.598 511.126 C 102.727 511.126 -14.89 393.509 -14.89 248.638 C -14.89 103.767 102.727 -13.85 247.598 -13.85 C 392.469 -13.85 510.086 103.767 510.086 248.638 C 510.086 302.578 493.78 352.74 465.833 394.46 L 465.833 394.46 L 465.833 394.46 L 465.833 394.46 L 465.833 394.46 Z" stroke-linecap="round" />
</g>
		<g transform="matrix(1.33 0 0 1.33 0 0)" clip-path="url(#CLIPPATH_132)"  >
<linearGradient id="SVGID__lgradient_0_8" gradientUnits="userSpaceOnUse" gradientTransform="matrix(597.9 0 0 556.14 -14.89 -13.85)"  x1="0.8795587530184708" y1="1.0785999768726027" x2="0.050798694649109355" y2="0.18760204210414033">
<stop offset="0%" style="stop-color:rgb(83,34,151);stop-opacity: 1"/>
<stop offset="97.3913043478261%" style="stop-color:rgb(160,119,225);stop-opacity: 1"/>
</linearGradient>
<clipPath id="CLIPPATH_132" >
	<rect transform="matrix(1 0 0 1 0 0)" id="_clipPath_9dExjbd0z5XyMNaDz4Z0lRmdIkBv8ipi" x="-373.951" y="-353.069" rx="0" ry="0" width="747.902" height="706.138" />
</clipPath>
<path style="stroke: none; stroke-width: 1; stroke-dasharray: none; stroke-linecap: butt; stroke-dashoffset: 0; stroke-linejoin: miter; stroke-miterlimit: 4; fill: url(#SVGID__lgradient_0_8); fill-rule: evenodd; opacity: 1;"  transform=" translate(-284.06, -264.22)" d="M 159.572 311.781 C 159.462 311.631 159.355 311.48 159.248 311.329 L 95.881 356.145 C 74.525 325.911 61.975 289.024 61.975 249.228 L 61.975 249.228 C 61.975 146.78 145.15 63.605 247.598 63.605 C 264.849 63.605 281.554 65.964 297.407 70.376 L 297.387 70.446 L 297.387 70.446 C 335.967 81.782 358.679 121.966 348.215 161.017 C 345.765 170.162 341.708 178.451 336.428 185.661 C 336.619 185.921 336.807 186.185 336.994 186.449 L 399.34 142.347 L 399.34 142.347 C 420.68 172.574 433.221 209.448 433.221 249.228 C 433.221 351.676 350.046 434.851 247.598 434.851 C 230.636 434.851 214.202 432.571 198.587 428.301 L 198.587 428.301 L 198.591 428.286 C 159.537 417.266 136.446 376.804 146.981 337.489 C 149.553 327.888 153.896 319.231 159.572 311.781 Z M 465.833 394.46 L 546.881 475.508 L 583.012 511.639 L 468.629 542.288 L 393.297 466.956 C 351.602 494.852 301.485 511.126 247.598 511.126 C 102.727 511.126 -14.89 393.509 -14.89 248.638 C -14.89 103.767 102.727 -13.85 247.598 -13.85 C 392.469 -13.85 510.086 103.767 510.086 248.638 C 510.086 302.578 493.78 352.74 465.833 394.46 L 465.833 394.46 L 465.833 394.46 L 465.833 394.46 L 465.833 394.46 Z" stroke-linecap="round" />
</g>
		<g transform="matrix(1.33 0 0 1.33 -21.72 -19.99)" clip-path="url(#CLIPPATH_133)"  >
<linearGradient id="SVGID__lgradient_1_9" gradientUnits="userSpaceOnUse" gradientTransform="matrix(156.13 0 0 180.28 193.61 159.09)"  x1="-0.04641503164806983" y1="0.06935760335415853" x2="1.0089478645797223" y2="0.9833286377918207">
<stop offset="0%" style="stop-color:rgb(160,119,225);stop-opacity: 1"/>
<stop offset="100%" style="stop-color:rgb(83,34,151);stop-opacity: 1"/>
</linearGradient>
<clipPath id="CLIPPATH_133" >
	<rect transform="matrix(1 0 0 1 16.29 14.99)" id="_clipPath_9dExjbd0z5XyMNaDz4Z0lRmdIkBv8ipi" x="-373.951" y="-353.069" rx="0" ry="0" width="747.902" height="706.138" />
</clipPath>
<path style="stroke: none; stroke-width: 1; stroke-dasharray: none; stroke-linecap: butt; stroke-dashoffset: 0; stroke-linejoin: miter; stroke-miterlimit: 4; fill: url(#SVGID__lgradient_1_9); fill-rule: nonzero; opacity: 1;"  transform=" translate(-267.77, -249.23)" d="M 336.417 256.92 L 271.675 294.299 L 206.933 331.678 C 199.58 335.923 193.61 332.476 193.61 323.986 L 193.61 249.228 L 193.61 174.47 C 193.61 165.98 199.58 162.533 206.933 166.779 L 271.675 204.158 L 336.417 241.537 C 343.77 245.782 343.77 252.675 336.417 256.92 Z" stroke-linecap="round" />
</g>
</g>
</g>
</svg>